<svg width="24" height="24" viewBox="0 0 24 24" fill="none" xmlns="http://www.w3.org/2000/svg">
<path fill-rule="evenodd" clip-rule="evenodd" d="M13.1173 2.47891C12.406 2.16263 11.594 2.16263 10.8827 2.47891C10.3977 2.69456 10.0393 3.09314 9.7155 3.55033C9.39412 4.00406 9.03898 4.6175 8.60061 5.37471L8.60061 5.37472L8.58155 5.40764L3.13178 14.8209L3.1127 14.8538L3.11267 14.8539C2.67267 15.6139 2.3163 16.2294 2.08212 16.7356C1.84624 17.2454 1.67854 17.7561 1.7337 18.2851C1.81456 19.0608 2.22093 19.7656 2.85166 20.2242C3.28188 20.537 3.80782 20.6477 4.36727 20.699C4.92267 20.75 5.63395 20.75 6.51215 20.75H6.55021H17.4497H17.4878C18.366 20.75 19.0773 20.75 19.6327 20.699C20.1921 20.6477 20.7181 20.537 21.1483 20.2242C21.779 19.7656 22.1854 19.0608 22.2663 18.2851C22.3214 17.7561 22.1537 17.2454 21.9178 16.7356C21.6836 16.2294 21.3273 15.6138 20.8872 14.8538L20.8682 14.8209L15.4184 5.40764L15.3994 5.37474L15.3993 5.37472C14.961 4.6175 14.6058 4.00407 14.2845 3.55033C13.9606 3.09314 13.6023 2.69456 13.1173 2.47891ZM12.75 9C12.75 8.58578 12.4142 8.25 12 8.25C11.5858 8.25 11.25 8.58578 11.25 9V13C11.25 13.4142 11.5858 13.75 12 13.75C12.4142 13.75 12.75 13.4142 12.75 13V9ZM13 16C13 16.5523 12.5523 17 12 17C11.4477 17 11 16.5523 11 16C11 15.4477 11.4477 15 12 15C12.5523 15 13 15.4477 13 16Z" fill="#231444"/>
</svg>
