<svg width="24" height="24" viewBox="0 0 24 24" fill="none" xmlns="http://www.w3.org/2000/svg">
<path d="M5.99988 11.25C5.58566 11.25 5.24988 11.5858 5.24988 12C5.24988 12.4142 5.58566 12.75 5.99988 12.75H9.99988C10.4141 12.75 10.7499 12.4142 10.7499 12C10.7499 11.5858 10.4141 11.25 9.99988 11.25H5.99988Z" fill="#231444"/>
<path fill-rule="evenodd" clip-rule="evenodd" d="M6.76777 3.25H17.232C18.0448 3.24999 18.7004 3.24999 19.2313 3.29336C19.778 3.33803 20.2581 3.43239 20.7023 3.65873C21.4079 4.01825 21.9816 4.59193 22.3412 5.29754C22.5675 5.74175 22.6619 6.2219 22.7065 6.76853C22.7342 7.10689 22.7442 7.49589 22.7478 7.94396C22.7492 7.96246 22.7499 7.98115 22.7499 8C22.7499 8.01524 22.7494 8.03037 22.7485 8.04538C22.7499 8.27065 22.7499 8.51043 22.7499 8.76572V15.2321C22.7499 16.045 22.7499 16.7006 22.7065 17.2315C22.6619 17.7781 22.5675 18.2582 22.3412 18.7025C21.9816 19.4081 21.4079 19.9818 20.7023 20.3413C20.2581 20.5676 19.778 20.662 19.2313 20.7066C18.7004 20.75 18.0448 20.75 17.232 20.75H6.76775C5.95492 20.75 5.29932 20.75 4.76841 20.7066C4.22177 20.662 3.74163 20.5676 3.29741 20.3413C2.59181 19.9818 2.01813 19.4081 1.6586 18.7025C1.43226 18.2582 1.3379 17.7781 1.29324 17.2315C1.24986 16.7006 1.24987 16.0449 1.24988 15.2321V8.7679C1.24988 8.51179 1.24987 8.27129 1.25123 8.04538C1.25033 8.03037 1.24988 8.01524 1.24988 8C1.24988 7.98115 1.25057 7.96246 1.25194 7.94396C1.25557 7.49589 1.2656 7.10688 1.29324 6.76853C1.3379 6.2219 1.43226 5.74175 1.6586 5.29754C2.01813 4.59193 2.59181 4.01825 3.29741 3.65873C3.74163 3.43239 4.22177 3.33803 4.76841 3.29336C5.29932 3.24999 5.95493 3.24999 6.76777 3.25ZM21.2115 6.89068C21.2206 7.00221 21.2276 7.12139 21.2329 7.25H2.7669C2.7722 7.12139 2.77915 7.00221 2.78826 6.89068C2.82534 6.4368 2.89447 6.17604 2.99511 5.97852C3.21083 5.55516 3.55504 5.21095 3.9784 4.99524C4.17592 4.8946 4.43668 4.82547 4.89056 4.78838C5.35319 4.75058 5.94742 4.75 6.79988 4.75H17.1999C18.0523 4.75 18.6466 4.75058 19.1092 4.78838C19.5631 4.82547 19.8238 4.8946 20.0214 4.99524C20.4447 5.21095 20.7889 5.55516 21.0046 5.97852C21.1053 6.17604 21.1744 6.4368 21.2115 6.89068ZM2.74988 8.75H21.2499L21.2499 15.2C21.2499 16.0525 21.2493 16.6467 21.2115 17.1093C21.1744 17.5632 21.1053 17.824 21.0046 18.0215C20.7889 18.4448 20.4447 18.7891 20.0214 19.0048C19.8238 19.1054 19.5631 19.1745 19.1092 19.2116C18.6466 19.2494 18.0523 19.25 17.1999 19.25H6.79988C5.94742 19.25 5.35319 19.2494 4.89056 19.2116C4.43668 19.1745 4.17592 19.1054 3.9784 19.0048C3.55504 18.7891 3.21083 18.4448 2.99511 18.0215C2.89447 17.824 2.82534 17.5632 2.78826 17.1093C2.75046 16.6467 2.74988 16.0525 2.74988 15.2L2.74988 8.75Z" fill="#231444"/>
</svg>
