<svg width="24" height="24" viewBox="0 0 24 24" fill="none" xmlns="http://www.w3.org/2000/svg">
<path fill-rule="evenodd" clip-rule="evenodd" d="M18.6323 3.22909C19.1945 3.09219 19.9094 3.02429 20.4427 3.55758C20.976 4.09087 20.9081 4.80578 20.7712 5.36801C20.6315 5.94161 20.3374 6.67675 19.9864 7.55426L16.173 17.0876C15.6832 18.3124 15.2877 19.3011 14.9176 19.9699C14.7297 20.3095 14.5156 20.629 14.2529 20.8625C13.9704 21.1137 13.602 21.2884 13.1612 21.2479C12.7204 21.2074 12.39 20.9686 12.1579 20.6702C11.9421 20.3927 11.7899 20.0395 11.6669 19.6714C11.4247 18.9464 11.2159 17.9022 10.9572 16.6087L10.7879 15.7619C10.6579 15.1122 10.5712 14.6837 10.4694 14.3611C10.3731 14.056 10.283 13.9142 10.1846 13.8158C10.0861 13.7173 9.94427 13.6272 9.63918 13.5309C9.3166 13.4291 8.88811 13.3424 8.23837 13.2124L7.3916 13.0431C6.09807 12.7844 5.05391 12.5756 4.32888 12.3334C3.96077 12.2105 3.60762 12.0582 3.33017 11.8424C3.03171 11.6103 2.79288 11.2799 2.75241 10.8391C2.71194 10.3984 2.88661 10.0299 3.13781 9.74739C3.37133 9.4847 3.69086 9.27067 4.03042 9.08275C4.69922 8.71262 5.6879 8.31716 6.91268 7.82727L16.4461 4.01389C17.3236 3.66286 18.0587 3.36877 18.6323 3.22909ZM18.9872 4.68651C18.5304 4.79774 17.8957 5.04961 16.946 5.42948L7.52558 9.19766C6.23217 9.71503 5.33275 10.0764 4.75675 10.3952C4.52467 10.5236 4.38566 10.6239 4.30627 10.6965C4.39754 10.7533 4.5525 10.8267 4.80408 10.9107C5.4285 11.1192 6.37868 11.3108 7.74468 11.584L8.57101 11.7492C9.17199 11.8694 9.68113 11.9712 10.0906 12.1005C10.5263 12.238 10.9155 12.4254 11.2452 12.7551C11.575 13.0848 11.7623 13.474 11.8998 13.9097C12.0291 14.3192 12.1309 14.8283 12.2511 15.4293L12.4163 16.2556C12.6895 17.6216 12.8811 18.5718 13.0896 19.1962C13.1737 19.4478 13.247 19.6028 13.3039 19.694C13.3764 19.6147 13.4767 19.4756 13.6052 19.2436C13.9239 18.6676 14.2853 17.7681 14.8027 16.4747L18.5708 7.05432C18.9507 6.10463 19.2026 5.4699 19.3138 5.01312C19.3649 4.80346 19.3716 4.68883 19.3685 4.63177C19.3115 4.62871 19.1968 4.63545 18.9872 4.68651ZM19.4171 4.64064C19.4171 4.64064 19.4121 4.6401 19.405 4.63616C19.4141 4.63818 19.4171 4.64064 19.4171 4.64064ZM19.3641 4.59529C19.3602 4.58826 19.3597 4.58317 19.3597 4.58317C19.3597 4.58317 19.3621 4.58617 19.3641 4.59529Z" fill="#231444"/>
</svg>
