<svg width="24" height="24" viewBox="0 0 24 24" fill="none" xmlns="http://www.w3.org/2000/svg">
<path d="M4 13.8182C4 18.3636 7.58172 22 12 22C16.4183 22 20 18.3636 20 13.8182C20 7.5285 15.2724 3.925 13.0857 2.59467C12.7919 2.41594 12.645 2.32657 12.4767 2.34455C12.3425 2.35889 12.1909 2.45012 12.1154 2.56198C12.0206 2.7023 12.0312 2.88101 12.0524 3.23843C12.2318 6.26656 12.658 12 9.71429 12C7.84315 12 7.50377 10.5108 7.44221 8.14192C7.43008 7.67517 7.42402 7.44179 7.29217 7.30259C7.18673 7.19128 6.99883 7.12812 6.84757 7.15314C6.65841 7.18443 6.5276 7.34801 6.26598 7.67517C5.2716 8.91865 4 11.05 4 13.8182Z" fill="#231444"/>
</svg>
