<svg width="24" height="24" viewBox="0 0 24 24" fill="none" xmlns="http://www.w3.org/2000/svg">
<path fill-rule="evenodd" clip-rule="evenodd" d="M14.2173 1.28212C14.5337 1.37789 14.75 1.66944 14.75 1.99994V9.24994H19C19.2766 9.24994 19.5307 9.40217 19.6613 9.64604C19.7918 9.88991 19.7775 10.1858 19.624 10.416L11.624 22.416C11.4407 22.691 11.099 22.8135 10.7827 22.7178C10.4663 22.622 10.25 22.3304 10.25 21.9999V14.7499H6C5.7234 14.7499 5.46926 14.5977 5.33875 14.3538C5.20823 14.11 5.22254 13.8141 5.37596 13.5839L13.376 1.58391C13.5593 1.30892 13.901 1.18634 14.2173 1.28212ZM7.40139 13.2499H11C11.4142 13.2499 11.75 13.5857 11.75 13.9999V19.5229L17.5986 10.7499H14C13.5858 10.7499 13.25 10.4141 13.25 9.99994V4.47702L7.40139 13.2499Z" fill="#231444"/>
</svg>
