<svg width="24" height="24" viewBox="0 0 24 24" fill="none" xmlns="http://www.w3.org/2000/svg">
<path d="M6.98917 13.8776L6.36262 16.2166L4.07258 16.265C3.38819 14.9957 3 13.5433 3 12C3 10.5076 3.36295 9.10018 4.00631 7.86096H4.0068L6.04558 8.23474L6.93869 10.2613C6.75176 10.8062 6.64988 11.3912 6.64988 12C6.64995 12.6606 6.76962 13.2936 6.98917 13.8776Z" fill="#FBBB00"/>
<path d="M20.8427 10.3187C20.9461 10.8632 21 11.4254 21 12C21 12.6444 20.9323 13.2729 20.8032 13.8792C20.3651 15.9422 19.2203 17.7437 17.6344 19.0185L17.6339 19.018L15.066 18.887L14.7025 16.6182C15.7548 16.0011 16.5772 15.0353 17.0104 13.8792H12.1979V10.3187H17.0806H20.8427Z" fill="#518EF8"/>
<path d="M17.6339 19.018L17.6344 19.0185C16.0921 20.2582 14.1328 21 12 21C8.57262 21 5.59275 19.0843 4.07263 16.2651L6.98922 13.8777C7.74926 15.9061 9.70602 17.3501 12 17.3501C12.9861 17.3501 13.9098 17.0835 14.7025 16.6182L17.6339 19.018Z" fill="#28B446"/>
<path d="M17.7447 5.07196L14.8291 7.45893C14.0087 6.94614 13.039 6.64991 12 6.64991C9.65408 6.64991 7.66073 8.16012 6.93876 10.2613L4.00684 7.86097H4.00635C5.50421 4.97307 8.52167 3 12 3C14.1837 3 16.186 3.77787 17.7447 5.07196Z" fill="#F14336"/>
</svg>
