<svg width="24" height="24" viewBox="0 0 24 24" fill="none" xmlns="http://www.w3.org/2000/svg">
<path d="M9.7679 2.25C8.95506 2.24999 8.29944 2.24999 7.76853 2.29336C7.2219 2.33803 6.74175 2.43239 6.29754 2.65873C5.59193 3.01825 5.01825 3.59193 4.65873 4.29754C4.43239 4.74175 4.33803 5.2219 4.29336 5.76853C4.24999 6.29944 4.24999 6.95506 4.25 7.76789V16.2321C4.24999 17.0449 4.24999 17.7006 4.29336 18.2315C4.33803 18.7781 4.43239 19.2582 4.65873 19.7025C5.01825 20.4081 5.59193 20.9817 6.29754 21.3413C6.74175 21.5676 7.2219 21.662 7.76853 21.7066C8.29944 21.75 8.95505 21.75 9.76788 21.75H11C11.4142 21.75 11.75 21.4142 11.75 21C11.75 20.5858 11.4142 20.25 11 20.25H9.8C8.94755 20.25 8.35331 20.2494 7.89068 20.2116C7.4368 20.1745 7.17604 20.1054 6.97852 20.0048C6.55516 19.789 6.21095 19.4448 5.99524 19.0215C5.8946 18.824 5.82547 18.5632 5.78838 18.1093C5.75058 17.6467 5.75 17.0525 5.75 16.2V7.8C5.75 6.94755 5.75058 6.35331 5.78838 5.89068C5.82547 5.4368 5.8946 5.17604 5.99524 4.97852C6.21095 4.55516 6.55516 4.21095 6.97852 3.99524C7.17604 3.8946 7.4368 3.82547 7.89068 3.78838C8.35331 3.75058 8.94755 3.75 9.8 3.75H11C11.4142 3.75 11.75 3.41421 11.75 3C11.75 2.58579 11.4142 2.25 11 2.25H9.7679Z" fill="#231444"/>
<path d="M16.5303 7.46967C16.2374 7.17678 15.7626 7.17678 15.4697 7.46967C15.1768 7.76256 15.1768 8.23744 15.4697 8.53033L18.1893 11.25H11C10.5858 11.25 10.25 11.5858 10.25 12C10.25 12.4142 10.5858 12.75 11 12.75H18.1893L15.4697 15.4697C15.1768 15.7626 15.1768 16.2374 15.4697 16.5303C15.7626 16.8232 16.2374 16.8232 16.5303 16.5303L20.5303 12.5303C20.8232 12.2374 20.8232 11.7626 20.5303 11.4697L16.5303 7.46967Z" fill="#231444"/>
</svg>
