<svg width="24" height="24" viewBox="0 0 24 24" fill="none" xmlns="http://www.w3.org/2000/svg">
<path fill-rule="evenodd" clip-rule="evenodd" d="M5.46166 2.25002C5.48319 2.25003 5.50497 2.25005 5.52703 2.25005C5.54737 2.25005 5.56743 2.25004 5.58723 2.25003C5.91937 2.24988 6.1777 2.24977 6.4164 2.29189C7.31582 2.45061 8.07775 3.04551 8.44987 3.87958C8.54863 4.10093 8.61118 4.35158 8.69159 4.67384C8.69638 4.69305 8.70124 4.71252 8.70617 4.73225L9.24136 6.873C9.25036 6.909 9.25927 6.94452 9.26808 6.97961C9.41874 7.58015 9.53705 8.05171 9.49449 8.51891C9.45709 8.9294 9.32789 9.32623 9.11646 9.68005C8.87581 10.0828 8.50256 10.3943 8.02721 10.791C7.99943 10.8142 7.97131 10.8377 7.94285 10.8615L5.94606 12.5308C7.24937 14.8902 9.10985 16.7507 11.4692 18.054L13.1386 16.0572C13.1624 16.0288 13.1859 16.0007 13.2091 15.9729C13.6058 15.4975 13.9173 15.1243 14.32 14.8836C14.6739 14.6722 15.0707 14.543 15.4812 14.5056C15.9484 14.463 16.4199 14.5813 17.0205 14.732C17.0556 14.7408 17.0911 14.7497 17.1271 14.7587L19.2678 15.2939C19.2876 15.2988 19.307 15.3037 19.3262 15.3085C19.6485 15.3889 19.8992 15.4515 20.1205 15.5502C20.9546 15.9223 21.5495 16.6843 21.7082 17.5837C21.7503 17.8224 21.7502 18.0807 21.7501 18.4129C21.7501 18.4327 21.75 18.4527 21.75 18.4731C21.75 18.4951 21.7501 18.5169 21.7501 18.5384C21.7503 18.9214 21.7504 19.2237 21.6839 19.5215C21.4418 20.6055 20.4384 21.5157 19.3361 21.6514C19.0337 21.6886 18.7738 21.6632 18.4506 21.6315C18.4351 21.63 18.4195 21.6284 18.4038 21.6269C15.7641 21.3694 13.3885 20.7099 11.3192 19.6702C8.24504 18.1256 5.8745 15.755 4.32988 12.6809C3.29017 10.6116 2.63072 8.23596 2.37318 5.5963C2.37164 5.58055 2.37012 5.56496 2.3686 5.54952C2.33691 5.22628 2.31144 4.96642 2.34867 4.66401C2.48439 3.56164 3.3946 2.55831 4.47857 2.31618C4.77642 2.24965 5.07864 2.24982 5.46166 2.25002ZM12.8577 18.7319C14.5381 19.452 16.4399 19.9282 18.5494 20.134C18.9359 20.1717 19.0317 20.1776 19.1528 20.1627C19.6256 20.1044 20.1161 19.6594 20.22 19.1945C20.2459 19.0784 20.25 18.9515 20.25 18.4731C20.25 18.0524 20.2473 17.9363 20.231 17.8444C20.1589 17.4355 19.8885 17.0892 19.5093 16.9201C19.424 16.882 19.3121 16.8511 18.904 16.7491L16.7633 16.2139C16.0042 16.0242 15.798 15.9829 15.6173 15.9994C15.4307 16.0164 15.2503 16.0751 15.0895 16.1712C14.9337 16.2644 14.7913 16.4191 14.2894 17.0193L12.8577 18.7319ZM5.26822 11.1424L6.98074 9.71066C7.58103 9.20881 7.73574 9.06641 7.82884 8.91061C7.92495 8.74978 7.98367 8.5694 8.00067 8.38282C8.01714 8.20206 7.97592 7.99588 7.78615 7.23681L7.25096 5.09605C7.14894 4.68797 7.11808 4.57604 7.08003 4.49074C6.91088 4.11162 6.56455 3.84121 6.15572 3.76907C6.06374 3.75283 5.94766 3.75005 5.52703 3.75005C5.0486 3.75005 4.92166 3.75418 4.80557 3.78011C4.34068 3.88395 3.89564 4.37452 3.83743 4.8473C3.82252 4.96843 3.82838 5.06417 3.86609 5.45064C4.07191 7.56018 4.54807 9.46194 5.26822 11.1424Z" fill="#231444"/>
</svg>
