<svg width="24" height="24" viewBox="0 0 24 24" fill="none" xmlns="http://www.w3.org/2000/svg">
<path fill-rule="evenodd" clip-rule="evenodd" d="M20.75 10.1482C20.75 7.23337 19.6699 4.98983 18.0034 3.48107C16.3496 1.98387 14.1636 1.25001 12 1.25C9.83643 1.24999 7.65035 1.98385 5.99663 3.48105C4.33015 4.98981 3.25 7.23335 3.25 10.1482C3.25 14.4536 6.10292 17.9679 8.3902 20.1079L8.40601 20.1226C9.1003 20.7723 9.55106 21.194 10.5926 21.5172C10.9835 21.6385 11.524 21.6825 12.0002 21.6825C12.4764 21.6825 13.017 21.6384 13.4079 21.5171C14.4494 21.1939 14.9001 20.7722 15.5944 20.1225L15.6102 20.1077C17.8973 17.9677 20.75 14.4535 20.75 10.1482ZM15 10C15 11.6569 13.6569 13 12 13C10.3431 13 9 11.6569 9 10C9 8.34315 10.3431 7 12 7C13.6569 7 15 8.34315 15 10Z" fill="#231444"/>
</svg>
