<svg width="24" height="24" viewBox="0 0 24 24" fill="none" xmlns="http://www.w3.org/2000/svg">
<path d="M10.048 10.816C9.89598 11.04 9.68398 11.152 9.41197 11.152C9.14797 11.152 8.93598 11.04 8.77597 10.816C8.61597 10.584 8.53597 10.252 8.53597 9.82003C8.53597 9.38803 8.61598 9.06003 8.77598 8.83603C8.93598 8.60403 9.14797 8.48803 9.41197 8.48803C9.68398 8.48803 9.89598 8.60003 10.048 8.82403C10.208 9.04803 10.288 9.38003 10.288 9.82003C10.288 10.26 10.208 10.592 10.048 10.816Z" fill="#231444"/>
<path d="M15.748 14.776C15.596 15 15.384 15.112 15.112 15.112C14.848 15.112 14.636 15 14.476 14.776C14.316 14.552 14.236 14.22 14.236 13.78C14.236 13.34 14.316 13.008 14.476 12.784C14.636 12.56 14.848 12.448 15.112 12.448C15.384 12.448 15.596 12.564 15.748 12.796C15.908 13.02 15.988 13.348 15.988 13.78C15.988 14.212 15.908 14.544 15.748 14.776Z" fill="#231444"/>
<path fill-rule="evenodd" clip-rule="evenodd" d="M11.3707 0.81537C11.7817 0.695658 12.2183 0.695658 12.6292 0.81537C12.9019 0.894799 13.1295 1.03158 13.3428 1.18803C13.5435 1.33517 13.7699 1.52922 14.0301 1.75225L15.314 2.85274C15.5876 3.08728 15.6438 3.13031 15.6979 3.15958C15.7603 3.19336 15.8272 3.21811 15.8966 3.23309C15.9567 3.24606 16.0274 3.24997 16.3878 3.24997L17.6289 3.24997C18.0242 3.24996 18.3653 3.24994 18.6462 3.2729C18.9427 3.29712 19.2377 3.35061 19.5214 3.4952C19.9448 3.71092 20.289 4.05513 20.5047 4.47849C20.6493 4.76228 20.7028 5.05719 20.727 5.3537C20.75 5.6346 20.75 5.97573 20.75 6.37104L20.75 7.61215C20.75 7.97254 20.7539 8.04321 20.7668 8.10333C20.7818 8.17271 20.8066 8.23962 20.8404 8.30204C20.8696 8.35613 20.9126 8.41233 21.1472 8.68596L22.2477 9.96992C22.4707 10.2301 22.6648 10.4564 22.8119 10.6571C22.9683 10.8705 23.1051 11.098 23.1846 11.3707C23.3043 11.7817 23.3043 12.2183 23.1846 12.6292C23.1051 12.9019 22.9683 13.1295 22.8119 13.3428C22.6648 13.5435 22.4707 13.7699 22.2477 14.0301L21.1472 15.314C20.9126 15.5876 20.8696 15.6438 20.8404 15.6979C20.8066 15.7603 20.7818 15.8272 20.7668 15.8966C20.7539 15.9567 20.75 16.0274 20.75 16.3878L20.75 17.629C20.75 18.0243 20.75 18.3653 20.727 18.6462C20.7028 18.9427 20.6493 19.2377 20.5047 19.5214C20.289 19.9448 19.9448 20.289 19.5214 20.5047C19.2377 20.6493 18.9427 20.7028 18.6462 20.727C18.3653 20.75 18.0242 20.75 17.6289 20.75L16.3878 20.75C16.0274 20.75 15.9567 20.7539 15.8966 20.7669C15.8272 20.7818 15.7603 20.8066 15.6979 20.8404C15.6438 20.8696 15.5876 20.9127 15.314 21.1472L14.03 22.2477C13.7698 22.4707 13.5435 22.6648 13.3428 22.8119C13.1295 22.9684 12.9019 23.1051 12.6292 23.1846C12.2183 23.3043 11.7817 23.3043 11.3707 23.1846C11.098 23.1051 10.8704 22.9684 10.6571 22.8119C10.4564 22.6648 10.23 22.4707 9.96984 22.2477L8.68595 21.1472C8.41232 20.9127 8.35612 20.8696 8.30203 20.8404C8.23961 20.8066 8.1727 20.7818 8.10332 20.7669C8.0432 20.7539 7.97253 20.75 7.61214 20.75L6.33672 20.75C5.94141 20.75 5.60038 20.75 5.31947 20.727C5.02296 20.7028 4.72805 20.6493 4.44426 20.5047C4.0209 20.289 3.67669 19.9448 3.46098 19.5214C3.31638 19.2377 3.2629 18.9427 3.23867 18.6462C3.21572 18.3653 3.21573 18.0242 3.21574 17.6289L3.21574 16.3801C3.21574 16.0228 3.2119 15.9527 3.19913 15.893C3.18439 15.8242 3.16003 15.7577 3.12676 15.6957C3.09793 15.6419 3.05558 15.586 2.82458 15.3134L1.72565 14.0165C1.50648 13.7579 1.31567 13.5327 1.17096 13.3332C1.01702 13.1209 0.882548 12.8948 0.804428 12.6243C0.68661 12.2164 0.68661 11.7835 0.804428 11.3756C0.882548 11.1051 1.01702 10.879 1.17096 10.6668C1.31568 10.4672 1.5065 10.242 1.72569 9.98339L2.82458 8.68656C3.05558 8.41395 3.09793 8.35802 3.12676 8.30425C3.16003 8.24219 3.18439 8.17576 3.19913 8.1069C3.2119 8.04725 3.21574 7.97719 3.21574 7.61987L3.21574 6.37106C3.21573 5.9757 3.21572 5.63463 3.23867 5.3537C3.2629 5.05719 3.31638 4.76228 3.46098 4.47849C3.67669 4.05513 4.0209 3.71092 4.44426 3.4952C4.72805 3.35061 5.02296 3.29712 5.31947 3.2729C5.6004 3.24994 5.94148 3.24996 6.33684 3.24997L7.61214 3.24997C7.97253 3.24997 8.0432 3.24606 8.10332 3.23309C8.1727 3.21811 8.23961 3.19336 8.30203 3.15958C8.35612 3.13031 8.41232 3.08728 8.68595 2.85274L9.96985 1.75225C10.23 1.52922 10.4564 1.33517 10.6571 1.18803C10.8704 1.03158 11.098 0.894799 11.3707 0.81537ZM7.89997 11.512C8.29198 11.928 8.79597 12.136 9.41197 12.136C10.028 12.136 10.528 11.928 10.912 11.512C11.296 11.088 11.488 10.524 11.488 9.82003C11.488 9.11603 11.296 8.55603 10.912 8.14003C10.528 7.71603 10.028 7.50403 9.41197 7.50403C8.79597 7.50403 8.29197 7.71603 7.89997 8.14003C7.51597 8.55603 7.32398 9.11603 7.32398 9.82003C7.32398 10.524 7.51597 11.088 7.89997 11.512ZM15.844 7.60003L14.416 7.60003L8.67998 16L10.108 16L15.844 7.60003ZM14.032 15.82C14.352 16.004 14.712 16.096 15.112 16.096C15.728 16.096 16.228 15.888 16.612 15.472C17.004 15.048 17.2 14.484 17.2 13.78C17.2 13.076 17.004 12.516 16.612 12.1C16.228 11.676 15.728 11.464 15.112 11.464C14.712 11.464 14.352 11.56 14.032 11.752C13.72 11.936 13.476 12.204 13.3 12.556C13.124 12.908 13.036 13.316 13.036 13.78C13.036 14.244 13.124 14.652 13.3 15.004C13.476 15.356 13.72 15.628 14.032 15.82Z" fill="#231444"/>
</svg>
