<svg width="24" height="24" viewBox="0 0 24 24" fill="none" xmlns="http://www.w3.org/2000/svg">
<path d="M7.25 8.00003C7.25 7.58582 7.58579 7.25003 8 7.25003L16 7.25003C16.4142 7.25003 16.75 7.58582 16.75 8.00003C16.75 8.41425 16.4142 8.75003 16 8.75003L8 8.75003C7.58579 8.75003 7.25 8.41425 7.25 8.00003Z" fill="#231444"/>
<path fill-rule="evenodd" clip-rule="evenodd" d="M16.2321 21.75C17.045 21.75 17.7006 21.75 18.2315 21.7067C18.7781 21.662 19.2582 21.5676 19.7025 21.3413C20.4081 20.9818 20.9817 20.4081 21.3413 19.7025C21.5676 19.2583 21.662 18.7781 21.7066 18.2315C21.75 17.7006 21.75 17.045 21.75 16.2322L21.75 8.9028C21.7502 8.25124 21.7503 7.80023 21.6464 7.36725C21.5545 6.98462 21.403 6.61882 21.1974 6.2833C20.9647 5.90364 20.6457 5.58482 20.1849 5.12424L18.8758 3.81514C18.4152 3.35429 18.0964 3.03529 17.7167 2.80263C17.3812 2.59702 17.0154 2.44551 16.6328 2.35364C16.1998 2.2497 15.7488 2.24983 15.0972 2.25002L7.7679 2.25003C6.95506 2.25002 6.29944 2.25002 5.76853 2.2934C5.2219 2.33806 4.74175 2.43242 4.29754 2.65876C3.59193 3.01828 3.01825 3.59196 2.65873 4.29757C2.43239 4.74179 2.33803 5.22193 2.29336 5.76856C2.24999 6.29947 2.24999 6.95508 2.25 7.76792V16.2321C2.24999 17.045 2.24999 17.7006 2.29336 18.2315C2.33803 18.7781 2.43239 19.2583 2.65873 19.7025C3.01825 20.4081 3.59193 20.9818 4.29754 21.3413C4.74175 21.5676 5.2219 21.662 5.76853 21.7067C6.29944 21.75 6.95505 21.75 7.76788 21.75H16.2321ZM16.2826 3.8122C16.0437 3.75485 15.7812 3.75003 15.0118 3.75003H7.8C6.94755 3.75003 6.35331 3.75062 5.89068 3.78841C5.43681 3.8255 5.17604 3.89463 4.97852 3.99527C4.55516 4.21098 4.21095 4.55519 3.99524 4.97855C3.8946 5.17607 3.82547 5.43684 3.78838 5.89071C3.75058 6.35334 3.75 6.94758 3.75 7.80003V16.2C3.75 17.0525 3.75058 17.6467 3.78838 18.1094C3.82547 18.5632 3.8946 18.824 3.99524 19.0215C4.21095 19.4449 4.55516 19.7891 4.97852 20.0048C5.17604 20.1054 5.43681 20.1746 5.89068 20.2117C6.24665 20.2407 6.68053 20.2478 7.25 20.2495L7.25 16.1696C7.24999 15.6355 7.24998 15.1896 7.27974 14.8254C7.31078 14.4455 7.37789 14.0888 7.54973 13.7516C7.81338 13.2341 8.23408 12.8134 8.75153 12.5498C9.08879 12.3779 9.44545 12.3108 9.82533 12.2798C10.1896 12.25 10.6354 12.25 11.1696 12.25H12.8304C13.3646 12.25 13.8104 12.25 14.1747 12.2798C14.5546 12.3108 14.9112 12.3779 15.2485 12.5498C15.7659 12.8134 16.1866 13.2341 16.4503 13.7516C16.6221 14.0888 16.6892 14.4455 16.7203 14.8254C16.75 15.1896 16.75 15.6354 16.75 16.1696V20.2495C17.3195 20.2478 17.7534 20.2407 18.1093 20.2117C18.5632 20.1746 18.824 20.1054 19.0215 20.0048C19.4448 19.7891 19.789 19.4449 20.0048 19.0215C20.1054 18.824 20.1745 18.5632 20.2116 18.1094C20.2494 17.6467 20.25 17.0525 20.25 16.2V8.98826C20.25 8.21879 20.2452 7.95629 20.1878 7.71742C20.1327 7.48784 20.0418 7.26836 19.9184 7.06705C19.7901 6.85759 19.6079 6.66857 19.0638 6.12448L17.8756 4.93625C17.3315 4.39215 17.1424 4.20995 16.933 4.08159C16.7317 3.95823 16.5122 3.86732 16.2826 3.8122ZM15.25 20.25V16.2C15.25 15.6276 15.2494 15.2434 15.2252 14.9475C15.2018 14.6604 15.1599 14.5231 15.1138 14.4325C14.9939 14.1973 14.8027 14.0061 14.5675 13.8863C14.4769 13.8401 14.3396 13.7982 14.0525 13.7748C13.7566 13.7506 13.3724 13.75 12.8 13.75H11.2C10.6276 13.75 10.2434 13.7506 9.94748 13.7748C9.66035 13.7982 9.52307 13.8401 9.43251 13.8863C9.19731 14.0061 9.00608 14.1973 8.88624 14.4325C8.8401 14.5231 8.79822 14.6604 8.77476 14.9475C8.75058 15.2434 8.75 15.6276 8.75 16.2V20.25H15.25Z" fill="#231444"/>
</svg>
