<svg width="24" height="24" viewBox="0 0 24 24" fill="none" xmlns="http://www.w3.org/2000/svg">
<path d="M12 20C16.4183 20 20 16.4183 20 12C20 7.58172 16.4183 4 12 4C7.58172 4 4 7.58172 4 12C4 16.4183 7.58172 20 12 20Z" fill="#FFD93B"/>
<path d="M11.9993 17.1438C9.6598 17.1438 7.6213 15.5593 7.0423 13.2913C6.9968 13.1128 7.1043 12.9313 7.2828 12.8858C7.4603 12.8393 7.6423 12.9478 7.6878 13.1263C8.1918 15.0993 9.9643 16.4773 11.9988 16.4773C14.0333 16.4773 15.8063 15.0993 16.3098 13.1263C16.3548 12.9478 16.5363 12.8393 16.7153 12.8858C16.8938 12.9313 17.0013 13.1128 16.9558 13.2913C16.3773 15.5593 14.3388 17.1438 11.9993 17.1438Z" fill="#3E4347"/>
<path d="M20.0078 12.0012C20.0078 16.4212 16.4253 20.0012 12.0078 20.0012C9.49277 20.0012 7.24777 18.8412 5.78027 17.0237C7.15277 18.1337 8.90027 18.7962 10.8028 18.7962C15.2203 18.7962 18.8028 15.2162 18.8028 10.7962C18.8028 8.89368 18.1403 7.14618 17.0303 5.77368C18.8453 7.24118 20.0078 9.48618 20.0078 12.0012Z" fill="#F4C534"/>
<path d="M9.41533 12.3434C10.0924 12.3434 10.6413 11.6911 10.6413 10.8864C10.6413 10.0818 10.0924 9.42944 9.41533 9.42944C8.73823 9.42944 8.18933 10.0818 8.18933 10.8864C8.18933 11.6911 8.73823 12.3434 9.41533 12.3434Z" fill="#3E4347"/>
<path d="M9.96469 10.5717C9.86919 10.6467 9.71219 10.6097 9.61169 10.4877C9.51119 10.3657 9.50619 10.2022 9.60169 10.1272C9.69669 10.0487 9.85419 10.0857 9.95419 10.2077C10.0552 10.3332 10.0562 10.4937 9.96469 10.5717Z" fill="#5A5F63"/>
<path d="M14.5715 12.3434C15.2486 12.3434 15.7975 11.6911 15.7975 10.8864C15.7975 10.0818 15.2486 9.42944 14.5715 9.42944C13.8944 9.42944 13.3455 10.0818 13.3455 10.8864C13.3455 11.6911 13.8944 12.3434 14.5715 12.3434Z" fill="#3E4347"/>
<path d="M15.1486 10.5717C15.0531 10.6467 14.8961 10.6097 14.7956 10.4877C14.6951 10.3657 14.6901 10.2022 14.7856 10.1272C14.8806 10.0487 15.0376 10.0857 15.1381 10.2077C15.2391 10.3332 15.2401 10.4937 15.1486 10.5717Z" fill="#5A5F63"/>
</svg>
