<svg width="24" height="24" viewBox="0 0 24 24" fill="none" xmlns="http://www.w3.org/2000/svg">
<path d="M12 13C12.5523 13 13 12.5523 13 12C13 11.4477 12.5523 11 12 11C11.4477 11 11 11.4477 11 12C11 12.5523 11.4477 13 12 13Z" fill="#231444"/>
<path fill-rule="evenodd" clip-rule="evenodd" d="M3.29795 9.2633C3.62808 10.1436 4.09067 11.0667 4.67132 12.0002C4.09081 12.9336 3.62831 13.8564 3.29824 14.7366C2.51105 16.8358 2.37983 18.9963 3.69199 20.3085C5.00414 21.6206 7.16466 21.4894 9.26383 20.7022C10.1441 20.3721 11.067 19.9096 12.0004 19.3291C12.9338 19.9096 13.8567 20.3721 14.7369 20.7022C16.836 21.4894 18.9965 21.6206 20.3087 20.3085C21.6209 18.9963 21.4896 16.8358 20.7024 14.7366C20.3724 13.8564 19.9099 12.9336 19.3294 12.0002C19.91 11.0667 20.3726 10.1437 20.7027 9.26332C21.4899 7.16415 21.6212 5.00363 20.309 3.69148C18.9968 2.37932 16.8363 2.51054 14.7371 3.29773C13.8569 3.62784 12.9339 4.09041 12.0004 4.67103C11.0669 4.0904 10.1439 3.62783 9.26354 3.29771C7.16437 2.51052 5.00385 2.37929 3.6917 3.69145C2.37954 5.00361 2.51076 7.16413 3.29795 9.2633ZM4.70245 8.73661C4.9292 9.34128 5.23067 9.97815 5.60228 10.6321C6.2783 9.71783 7.06023 8.80851 7.93463 7.93412C8.80892 7.05982 9.71812 6.27798 10.6323 5.60201C9.97836 5.23041 9.34151 4.92895 8.73686 4.7022C6.74128 3.95386 5.39282 4.11165 4.75236 4.75211C4.11189 5.39258 3.9541 6.74103 4.70245 8.73661ZM8.73715 19.2977C9.3417 19.071 9.97843 18.7696 10.6322 18.3981C9.718 17.7221 8.80871 16.9402 7.93434 16.0658C7.06008 15.1916 6.27827 14.2824 5.60232 13.3683C5.23083 14.0221 4.92944 14.6588 4.70274 15.2633C3.95439 17.2589 4.11218 18.6074 4.75265 19.2478C5.39311 19.8883 6.74157 20.0461 8.73715 19.2977ZM8.995 15.0052C9.97779 15.988 10.9965 16.8359 12.0004 17.5337C13.0042 16.8359 14.0229 15.988 15.0057 15.0052C15.9884 14.0225 16.8363 13.0039 17.5339 12.0002C16.8362 10.9963 15.9882 9.97756 15.0054 8.99475C14.0227 8.01207 13.0041 7.16417 12.0004 6.46647C10.9966 7.16417 9.97798 8.01208 8.99529 8.99478C8.01248 9.97758 7.1645 10.9963 6.46676 12.0002C7.16444 13.0039 8.01233 14.0225 8.995 15.0052ZM15.2635 19.2977C14.659 19.071 14.0223 18.7696 13.3685 18.3981C14.2827 17.7221 15.192 16.9402 16.0664 16.0658C16.9406 15.1916 17.7224 14.2824 18.3984 13.3683C18.7699 14.0221 19.0713 14.6588 19.298 15.2633C20.0463 17.2589 19.8885 18.6073 19.248 19.2478C18.6076 19.8883 17.2591 20.0461 15.2635 19.2977ZM19.2982 8.73664C19.0715 9.3413 18.77 9.97815 18.3984 10.6321C17.7224 9.71781 16.9405 8.8085 16.0661 7.93409C15.1918 7.05981 14.2826 6.27797 13.3685 5.60201C14.0224 5.23042 14.6592 4.92897 15.2638 4.70223C17.2594 3.95388 18.6079 4.11167 19.2483 4.75214C19.8888 5.3926 20.0466 6.74106 19.2982 8.73664Z" fill="#231444"/>
</svg>
